<?xml version="1.0" encoding="utf-8"?>
<!-- Generator: Adobe Illustrator 18.1.1, SVG Export Plug-In . SVG Version: 6.00 Build 0)  -->
<svg version="1.1" id="Слой_1" xmlns="http://www.w3.org/2000/svg" xmlns:xlink="http://www.w3.org/1999/xlink" x="0px" y="0px"
	 viewBox="0 0 595.3 841.9" enable-background="new 0 0 595.3 841.9" xml:space="preserve">
<path fill="#FFFFFF" d="M315,435.9c0,1.7,0,3.3,0,5c-10.7,0-21.3,0-32,0c0-1.7,0-3.3,0-5c1.2-2.7,2.4-5.4,3.4-8.2
	c1-2.7,2.4-5.5,2.3-8.1c-0.4-7,1.3-12.7,7.3-16.7c2,0,4,0,6,0c3.7,2.9,7.7,6.2,7,11.2C307.7,422.5,312.2,428.9,315,435.9z M306,414
	c-1.2-1.2-2.9-4.3-5.1-4.9c-3.6-0.9-9.1,3.6-9,6.1c0.1,3.4,3.9,7.4,7,7.4C301.9,422.6,306.2,418.2,306,414z M293.5,426.5
	c0.2,1,0.4,2,0.6,3c3.3,0,6.6,0,9.8,0c0.2-0.8,0.4-1.5,0.7-2.3c-1.7-1.1-3.3-3-5-3C297.6,424.2,295.5,425.7,293.5,426.5z"/>
</svg>
